<svg width="640" height="420" viewBox="0 0 640 420" fill="none" xmlns="http://www.w3.org/2000/svg">
  <rect width="640" height="420" rx="36" fill="#EBEBEB"/>
  <circle cx="106" cy="102" r="68" fill="#2563EB" fill-opacity="0.14"/>
  <circle cx="546" cy="330" r="94" fill="#808080" fill-opacity="0.14"/>
  <rect x="74" y="86" width="492" height="248" rx="28" fill="#FFFFFF" stroke="#AFAFAF" stroke-width="6"/>
  <rect x="110" y="124" width="180" height="180" rx="22" fill="#E1E1E1"/>
  <path d="M164 176L222 144L238 160L180 192L164 176Z" fill="#4B4B4B"/>
  <path d="M182 193L240 161L256 177L198 209L182 193Z" fill="#2563EB"/>
  <circle cx="376" cy="170" r="54" fill="#0A0A0A"/>
  <path d="M376 136V171L402 192" stroke="#F5F5F5" stroke-width="12" stroke-linecap="round" stroke-linejoin="round"/>
  <rect x="326" y="246" width="188" height="26" rx="13" fill="#E1E1E1"/>
  <rect x="326" y="286" width="142" height="18" rx="9" fill="#CFCFCF"/>
  <rect x="110" y="338" width="446" height="18" rx="9" fill="#AFAFAF"/>
  <path d="M504 118L556 126L546 176" stroke="#2563EB" stroke-width="10" stroke-linecap="round" stroke-linejoin="round"/>
</svg>
